<?xml version="1.0" encoding="UTF-8"?>
<svg xmlns="http://www.w3.org/2000/svg" xmlns:xlink="http://www.w3.org/1999/xlink" width="268pt" height="53pt" viewBox="0 0 268 53" version="1.1">
<g id="surface1">
<path style=" stroke:none;fill-rule:nonzero;fill:rgb(92.941176%,75.686275%,37.254902%);fill-opacity:1;" d="M 27.832031 34.746094 L 27.832031 18.605469 L 33.761719 18.605469 C 38.039062 18.605469 41.65625 22.316406 41.65625 26.710938 C 41.65625 31.144531 38.113281 34.746094 33.761719 34.746094 Z M 33.761719 41.339844 C 41.820312 41.339844 48.378906 34.777344 48.378906 26.710938 C 48.378906 18.648438 41.820312 12.085938 33.761719 12.085938 L 27.832031 12.085938 L 27.832031 1.015625 L 27.8125 0.46875 L 27.667969 0.625 L 15.300781 3.242188 L 15.300781 8.292969 L 20.90625 8.292969 L 20.90625 34.746094 L 14.980469 34.746094 C 10.625 34.746094 7.085938 31.144531 7.085938 26.710938 C 7.085938 22.316406 10.699219 18.605469 14.980469 18.605469 L 16.964844 18.605469 L 16.964844 12.085938 L 14.980469 12.085938 C 6.917969 12.085938 0.359375 18.648438 0.359375 26.710938 C 0.359375 34.777344 6.917969 41.339844 14.980469 41.339844 L 20.90625 41.339844 L 20.90625 46.066406 L 13.921875 46.066406 L 13.921875 52.472656 L 34.820312 52.472656 L 34.820312 46.066406 L 27.832031 46.066406 L 27.832031 41.339844 Z M 33.761719 41.339844 "/>
<path style=" stroke:none;fill-rule:nonzero;fill:rgb(100%,100%,100%);fill-opacity:1;" d="M 65.238281 29.105469 C 65.78125 28.820312 66.246094 28.457031 66.632812 28.019531 C 67.019531 27.582031 67.363281 26.992188 67.667969 26.242188 C 67.972656 25.492188 68.222656 24.761719 68.410156 24.054688 C 68.601562 23.347656 68.777344 22.449219 68.941406 21.363281 C 69.105469 20.273438 69.230469 19.316406 69.3125 18.484375 C 69.394531 17.652344 69.484375 16.609375 69.582031 15.359375 L 74.324219 15.359375 L 74.324219 29.316406 L 78.027344 29.316406 L 78.027344 12.023438 L 66.175781 12.023438 C 66.140625 12.46875 66.097656 13.152344 66.039062 14.074219 C 65.980469 14.996094 65.933594 15.722656 65.890625 16.25 C 65.851562 16.773438 65.792969 17.457031 65.71875 18.296875 C 65.644531 19.140625 65.566406 19.816406 65.484375 20.335938 C 65.402344 20.855469 65.304688 21.449219 65.1875 22.117188 C 65.074219 22.78125 64.9375 23.316406 64.78125 23.722656 C 64.625 24.125 64.445312 24.519531 64.238281 24.90625 C 64.03125 25.292969 63.796875 25.582031 63.535156 25.773438 C 63.269531 25.960938 62.980469 26.0625 62.667969 26.082031 C 62.226562 26.097656 61.832031 26.054688 61.484375 25.957031 L 61.484375 29.21875 C 62.078125 29.433594 62.71875 29.539062 63.410156 29.539062 C 64.085938 29.539062 64.695312 29.394531 65.238281 29.105469 "/>
<path style=" stroke:none;fill-rule:nonzero;fill:rgb(100%,100%,100%);fill-opacity:1;" d="M 93.261719 18.027344 C 93.210938 18.734375 93.1875 19.523438 93.1875 20.398438 L 93.1875 29.316406 L 96.890625 29.316406 L 96.890625 12.023438 L 93.410156 12.023438 L 85.359375 23.3125 C 85.410156 22.605469 85.433594 21.816406 85.433594 20.941406 L 85.433594 12.023438 L 81.730469 12.023438 L 81.730469 29.316406 L 85.210938 29.316406 Z M 93.261719 18.027344 "/>
<path style=" stroke:none;fill-rule:nonzero;fill:rgb(100%,100%,100%);fill-opacity:1;" d="M 112.074219 26.054688 L 105.210938 26.054688 C 106.414062 23.75 107.171875 20.183594 107.484375 15.359375 L 112.074219 15.359375 Z M 117.976562 33.070312 L 117.976562 26.054688 L 115.777344 26.054688 L 115.777344 12.023438 L 104.027344 12.023438 C 104.027344 18.101562 103.113281 22.777344 101.285156 26.054688 L 99.261719 26.054688 L 99.261719 33.070312 L 102.519531 33.070312 L 102.519531 29.316406 L 114.71875 29.316406 L 114.71875 33.070312 Z M 117.976562 33.070312 "/>
<path style=" stroke:none;fill-rule:nonzero;fill:rgb(100%,100%,100%);fill-opacity:1;" d="M 124.273438 22.203125 L 132 22.203125 L 132 18.964844 L 124.273438 18.964844 L 124.273438 15.285156 L 132.742188 15.285156 L 132.742188 12.023438 L 120.570312 12.023438 L 120.570312 29.316406 L 132.890625 29.316406 L 132.890625 26.054688 L 124.273438 26.054688 Z M 124.273438 22.203125 "/>
<path style=" stroke:none;fill-rule:nonzero;fill:rgb(100%,100%,100%);fill-opacity:1;" d="M 139.507812 15.285156 L 142.496094 15.285156 C 144.832031 15.285156 146 16.132812 146 17.828125 C 146 19.523438 144.832031 20.375 142.496094 20.375 L 139.507812 20.375 Z M 139.507812 23.632812 L 142.320312 23.632812 C 147.292969 23.632812 149.777344 21.699219 149.777344 17.828125 C 149.777344 13.957031 147.292969 12.023438 142.320312 12.023438 L 135.804688 12.023438 L 135.804688 29.316406 L 139.507812 29.316406 L 139.507812 23.632812 "/>
<path style=" stroke:none;fill-rule:nonzero;fill:rgb(100%,100%,100%);fill-opacity:1;" d="M 172.195312 23.636719 C 171.421875 24.425781 170.214844 24.886719 168.566406 25.019531 L 168.566406 16.320312 C 170.214844 16.453125 171.421875 16.914062 172.195312 17.707031 C 172.972656 18.496094 173.359375 19.484375 173.359375 20.671875 C 173.359375 21.855469 172.972656 22.84375 172.195312 23.636719 Z M 165.011719 25.019531 C 163.332031 24.902344 162.101562 24.449219 161.320312 23.660156 C 160.539062 22.871094 160.148438 21.875 160.148438 20.671875 C 160.148438 19.46875 160.539062 18.472656 161.320312 17.679688 C 162.101562 16.890625 163.332031 16.4375 165.011719 16.320312 Z M 174.765625 15.382812 C 173.234375 14.082031 171.167969 13.367188 168.566406 13.234375 L 168.566406 11.058594 L 165.011719 11.058594 L 165.011719 13.234375 C 162.378906 13.347656 160.292969 14.058594 158.753906 15.359375 C 157.214844 16.660156 156.445312 18.429688 156.445312 20.671875 C 156.445312 22.910156 157.214844 24.679688 158.753906 25.980469 C 160.292969 27.285156 162.378906 27.992188 165.011719 28.105469 L 165.011719 30.28125 L 168.566406 30.28125 L 168.566406 28.105469 C 171.167969 27.976562 173.234375 27.257812 174.765625 25.957031 C 176.296875 24.65625 177.0625 22.894531 177.0625 20.671875 C 177.0625 18.445312 176.296875 16.683594 174.765625 15.382812 Z M 174.765625 15.382812 "/>
<path style=" stroke:none;fill-rule:nonzero;fill:rgb(100%,100%,100%);fill-opacity:1;" d="M 190.914062 20.398438 L 190.914062 29.316406 L 194.617188 29.316406 L 194.617188 12.023438 L 191.132812 12.023438 L 183.085938 23.3125 C 183.136719 22.605469 183.160156 21.816406 183.160156 20.941406 L 183.160156 12.023438 L 179.457031 12.023438 L 179.457031 29.316406 L 182.9375 29.316406 L 190.988281 18.027344 C 190.9375 18.734375 190.914062 19.523438 190.914062 20.398438 Z M 190.914062 20.398438 "/>
<path style=" stroke:none;fill-rule:nonzero;fill:rgb(100%,100%,100%);fill-opacity:1;" d="M 209.777344 18.988281 L 202.023438 18.988281 L 202.023438 12.023438 L 198.320312 12.023438 L 198.320312 29.316406 L 202.023438 29.316406 L 202.023438 22.351562 L 209.777344 22.351562 L 209.777344 29.316406 L 213.480469 29.316406 L 213.480469 12.023438 L 209.777344 12.023438 Z M 209.777344 18.988281 "/>
<path style=" stroke:none;fill-rule:nonzero;fill:rgb(100%,100%,100%);fill-opacity:1;" d="M 224.070312 16.816406 C 224.234375 16.421875 224.367188 15.96875 224.464844 15.457031 C 224.550781 15.902344 224.671875 16.355469 224.835938 16.816406 L 227.257812 23.015625 L 221.675781 23.015625 Z M 220.515625 26.082031 L 228.417969 26.082031 L 229.675781 29.316406 L 233.503906 29.316406 L 226.46875 12.023438 L 222.46875 12.023438 L 215.40625 29.316406 L 219.230469 29.316406 Z M 220.515625 26.082031 "/>
<path style=" stroke:none;fill-rule:nonzero;fill:rgb(100%,100%,100%);fill-opacity:1;" d="M 246.886719 29.316406 L 250.589844 29.316406 L 250.589844 12.023438 L 246.886719 12.023438 L 246.886719 18.988281 L 239.132812 18.988281 L 239.132812 12.023438 L 235.429688 12.023438 L 235.429688 29.316406 L 239.132812 29.316406 L 239.132812 22.351562 L 246.886719 22.351562 Z M 246.886719 29.316406 "/>
<path style=" stroke:none;fill-rule:nonzero;fill:rgb(100%,100%,100%);fill-opacity:1;" d="M 263.230469 26.351562 C 262.457031 26.351562 261.714844 26.242188 260.996094 26.019531 C 260.28125 25.796875 259.628906 25.472656 259.046875 25.042969 C 258.460938 24.613281 257.996094 24.042969 257.652344 23.324219 C 257.304688 22.609375 257.132812 21.789062 257.132812 20.867188 C 257.132812 18.925781 257.730469 17.453125 258.921875 16.457031 C 260.117188 15.460938 261.554688 14.964844 263.230469 14.964844 C 264.941406 14.964844 266.382812 15.417969 267.554688 16.320312 L 267.554688 12.789062 C 266.070312 12.046875 264.425781 11.675781 262.613281 11.675781 C 261.429688 11.675781 260.292969 11.863281 259.207031 12.234375 C 258.121094 12.605469 257.136719 13.152344 256.257812 13.875 C 255.375 14.601562 254.667969 15.570312 254.132812 16.777344 C 253.597656 17.988281 253.332031 19.351562 253.332031 20.867188 C 253.332031 22.316406 253.597656 23.617188 254.132812 24.769531 C 254.667969 25.921875 255.382812 26.847656 256.28125 27.539062 C 257.175781 28.230469 258.171875 28.757812 259.257812 29.117188 C 260.34375 29.480469 261.476562 29.664062 262.664062 29.664062 C 264.472656 29.664062 266.144531 29.292969 267.675781 28.550781 L 267.675781 24.917969 C 266.621094 25.875 265.140625 26.351562 263.230469 26.351562 "/>
<path style=" stroke:none;fill-rule:nonzero;fill:rgb(100%,100%,100%);fill-opacity:1;" d="M 65.59375 42.046875 C 65.25 42.246094 64.785156 42.34375 64.195312 42.34375 L 62.660156 42.34375 L 62.660156 39.617188 L 64.195312 39.617188 C 64.785156 39.617188 65.25 39.71875 65.59375 39.914062 C 65.9375 40.113281 66.109375 40.46875 66.109375 40.980469 C 66.109375 41.492188 65.9375 41.847656 65.59375 42.046875 Z M 64.128906 38.492188 L 61.425781 38.492188 L 61.425781 46.066406 L 62.660156 46.066406 L 62.660156 43.46875 L 64.128906 43.46875 C 66.285156 43.46875 67.359375 42.640625 67.359375 40.980469 C 67.359375 39.324219 66.285156 38.492188 64.128906 38.492188 "/>
<path style=" stroke:none;fill-rule:nonzero;fill:rgb(100%,100%,100%);fill-opacity:1;" d="M 70.0625 43.351562 L 71.394531 40.117188 C 71.453125 39.957031 71.496094 39.816406 71.535156 39.695312 C 71.570312 39.816406 71.617188 39.957031 71.675781 40.117188 L 73.003906 43.351562 Z M 70.863281 38.492188 L 67.664062 46.066406 L 68.972656 46.066406 L 69.640625 44.433594 L 73.4375 44.433594 L 74.105469 46.066406 L 75.40625 46.066406 L 72.214844 38.492188 L 70.863281 38.492188 "/>
<path style=" stroke:none;fill-rule:nonzero;fill:rgb(100%,100%,100%);fill-opacity:1;" d="M 78.960938 44.789062 C 78.519531 44.601562 78.148438 44.292969 77.847656 43.871094 C 77.546875 43.445312 77.394531 42.9375 77.394531 42.34375 C 77.402344 41.40625 77.695312 40.695312 78.28125 40.214844 C 78.863281 39.730469 79.554688 39.488281 80.355469 39.488281 C 81.113281 39.488281 81.761719 39.675781 82.300781 40.050781 L 82.300781 38.851562 C 81.636719 38.519531 80.921875 38.351562 80.148438 38.351562 C 79.636719 38.351562 79.148438 38.4375 78.679688 38.601562 C 78.210938 38.765625 77.785156 39.011719 77.40625 39.332031 C 77.023438 39.652344 76.714844 40.074219 76.484375 40.589844 C 76.253906 41.109375 76.140625 41.695312 76.140625 42.34375 C 76.140625 42.964844 76.253906 43.527344 76.484375 44.03125 C 76.714844 44.535156 77.027344 44.945312 77.414062 45.253906 C 77.804688 45.5625 78.234375 45.800781 78.703125 45.960938 C 79.167969 46.125 79.65625 46.207031 80.160156 46.207031 C 80.949219 46.207031 81.679688 46.039062 82.355469 45.707031 L 82.355469 44.484375 C 81.84375 44.875 81.183594 45.070312 80.378906 45.070312 C 79.871094 45.070312 79.402344 44.976562 78.960938 44.789062 "/>
<path style=" stroke:none;fill-rule:nonzero;fill:rgb(100%,100%,100%);fill-opacity:1;" d="M 86.464844 44.789062 C 86.023438 44.601562 85.652344 44.292969 85.351562 43.871094 C 85.046875 43.445312 84.898438 42.9375 84.898438 42.34375 C 84.902344 41.40625 85.199219 40.695312 85.78125 40.214844 C 86.367188 39.730469 87.058594 39.488281 87.859375 39.488281 C 88.617188 39.488281 89.265625 39.675781 89.804688 40.050781 L 89.804688 38.851562 C 89.140625 38.519531 88.425781 38.351562 87.652344 38.351562 C 87.140625 38.351562 86.652344 38.4375 86.183594 38.601562 C 85.714844 38.765625 85.289062 39.011719 84.90625 39.332031 C 84.523438 39.652344 84.21875 40.074219 83.988281 40.589844 C 83.757812 41.109375 83.644531 41.695312 83.644531 42.34375 C 83.644531 42.964844 83.757812 43.527344 83.988281 44.03125 C 84.21875 44.535156 84.527344 44.945312 84.917969 45.253906 C 85.308594 45.5625 85.738281 45.800781 86.203125 45.960938 C 86.671875 46.125 87.160156 46.207031 87.664062 46.207031 C 88.449219 46.207031 89.179688 46.039062 89.859375 45.707031 L 89.859375 44.484375 C 89.347656 44.875 88.6875 45.070312 87.882812 45.070312 C 87.375 45.070312 86.902344 44.976562 86.464844 44.789062 Z M 86.464844 44.789062 "/>
<path style=" stroke:none;fill-rule:nonzero;fill:rgb(100%,100%,100%);fill-opacity:1;" d="M 95.941406 42.046875 C 95.597656 42.246094 95.128906 42.34375 94.539062 42.34375 L 93.003906 42.34375 L 93.003906 39.617188 L 94.539062 39.617188 C 95.128906 39.617188 95.597656 39.71875 95.941406 39.914062 C 96.28125 40.113281 96.453125 40.46875 96.453125 40.980469 C 96.453125 41.492188 96.28125 41.847656 95.941406 42.046875 Z M 94.476562 38.492188 L 91.773438 38.492188 L 91.773438 46.066406 L 93.003906 46.066406 L 93.003906 43.46875 L 94.476562 43.46875 C 96.628906 43.46875 97.707031 42.640625 97.707031 40.980469 C 97.707031 39.324219 96.628906 38.492188 94.476562 38.492188 "/>
<path style=" stroke:none;fill-rule:nonzero;fill:rgb(100%,100%,100%);fill-opacity:1;" d="M 105 44.25 C 104.527344 44.78125 103.855469 45.050781 102.984375 45.050781 C 102.117188 45.050781 101.445312 44.78125 100.972656 44.25 C 100.496094 43.714844 100.257812 43.058594 100.257812 42.28125 C 100.257812 41.5 100.496094 40.84375 100.972656 40.308594 C 101.445312 39.777344 102.117188 39.511719 102.984375 39.511719 C 103.855469 39.511719 104.527344 39.777344 105 40.308594 C 105.46875 40.84375 105.707031 41.5 105.707031 42.28125 C 105.707031 43.058594 105.46875 43.714844 105 44.25 Z M 105.972656 39.570312 C 105.652344 39.199219 105.234375 38.902344 104.71875 38.683594 C 104.203125 38.460938 103.625 38.351562 102.984375 38.351562 C 102.339844 38.351562 101.761719 38.460938 101.242188 38.683594 C 100.722656 38.902344 100.304688 39.199219 99.988281 39.570312 C 99.671875 39.941406 99.429688 40.355469 99.257812 40.820312 C 99.089844 41.28125 99.003906 41.765625 99.003906 42.28125 C 99.003906 42.792969 99.089844 43.277344 99.257812 43.738281 C 99.429688 44.199219 99.671875 44.617188 99.988281 44.988281 C 100.304688 45.359375 100.722656 45.65625 101.242188 45.875 C 101.761719 46.09375 102.339844 46.207031 102.984375 46.207031 C 103.625 46.207031 104.203125 46.09375 104.71875 45.875 C 105.234375 45.65625 105.652344 45.359375 105.972656 44.988281 C 106.292969 44.617188 106.539062 44.199219 106.707031 43.738281 C 106.875 43.277344 106.960938 42.792969 106.960938 42.28125 C 106.960938 41.765625 106.875 41.28125 106.707031 40.820312 C 106.539062 40.355469 106.292969 39.941406 105.972656 39.570312 Z M 105.972656 39.570312 "/>
<path style=" stroke:none;fill-rule:nonzero;fill:rgb(100%,100%,100%);fill-opacity:1;" d="M 113.253906 42.074219 C 112.675781 42.304688 112.085938 42.421875 111.480469 42.421875 C 110.246094 42.40625 109.632812 41.925781 109.632812 40.980469 L 109.632812 38.492188 L 108.398438 38.492188 L 108.398438 40.980469 C 108.398438 41.824219 108.644531 42.464844 109.132812 42.902344 C 109.625 43.339844 110.304688 43.558594 111.179688 43.566406 C 111.863281 43.566406 112.554688 43.453125 113.253906 43.21875 L 113.253906 46.066406 L 114.484375 46.066406 L 114.484375 38.492188 L 113.253906 38.492188 L 113.253906 42.074219 "/>
<path style=" stroke:none;fill-rule:nonzero;fill:rgb(100%,100%,100%);fill-opacity:1;" d="M 123.089844 38.492188 L 121.695312 38.492188 L 119.589844 41.652344 L 118.097656 41.652344 L 118.097656 38.492188 L 116.863281 38.492188 L 116.863281 46.066406 L 118.097656 46.066406 L 118.097656 42.785156 L 119.609375 42.785156 L 121.890625 46.066406 L 123.285156 46.066406 L 120.582031 42.183594 L 123.089844 38.492188 "/>
<path style=" stroke:none;fill-rule:nonzero;fill:rgb(100%,100%,100%);fill-opacity:1;" d="M 126.28125 43.351562 L 127.609375 40.117188 C 127.667969 39.957031 127.714844 39.816406 127.75 39.695312 C 127.785156 39.816406 127.832031 39.957031 127.890625 40.117188 L 129.222656 43.351562 Z M 127.082031 38.492188 L 123.878906 46.066406 L 125.1875 46.066406 L 125.859375 44.433594 L 129.652344 44.433594 L 130.324219 46.066406 L 131.621094 46.066406 L 128.429688 38.492188 L 127.082031 38.492188 "/>
<path style=" stroke:none;fill-rule:nonzero;fill:rgb(100%,100%,100%);fill-opacity:1;" d="M 136.238281 46.066406 L 137.46875 46.066406 L 137.46875 39.628906 L 141.359375 39.628906 L 141.359375 46.066406 L 142.59375 46.066406 L 142.59375 38.492188 L 136.238281 38.492188 Z M 136.238281 46.066406 "/>
<path style=" stroke:none;fill-rule:nonzero;fill:rgb(100%,100%,100%);fill-opacity:1;" d="M 150.480469 44.25 C 150.007812 44.78125 149.335938 45.050781 148.464844 45.050781 C 147.597656 45.050781 146.929688 44.78125 146.453125 44.25 C 145.976562 43.714844 145.738281 43.058594 145.738281 42.28125 C 145.738281 41.5 145.976562 40.84375 146.453125 40.308594 C 146.929688 39.777344 147.597656 39.511719 148.464844 39.511719 C 149.335938 39.511719 150.007812 39.777344 150.480469 40.308594 C 150.953125 40.84375 151.1875 41.5 151.1875 42.28125 C 151.1875 43.058594 150.953125 43.714844 150.480469 44.25 Z M 151.453125 39.570312 C 151.132812 39.199219 150.714844 38.902344 150.199219 38.683594 C 149.683594 38.460938 149.105469 38.351562 148.464844 38.351562 C 147.824219 38.351562 147.242188 38.460938 146.722656 38.683594 C 146.203125 38.902344 145.785156 39.199219 145.46875 39.570312 C 145.152344 39.941406 144.910156 40.355469 144.738281 40.820312 C 144.570312 41.28125 144.484375 41.765625 144.484375 42.28125 C 144.484375 42.792969 144.570312 43.277344 144.738281 43.738281 C 144.910156 44.199219 145.152344 44.617188 145.46875 44.988281 C 145.785156 45.359375 146.203125 45.65625 146.722656 45.875 C 147.242188 46.09375 147.824219 46.207031 148.464844 46.207031 C 149.105469 46.207031 149.683594 46.09375 150.199219 45.875 C 150.714844 45.65625 151.132812 45.359375 151.453125 44.988281 C 151.773438 44.617188 152.019531 44.199219 152.1875 43.738281 C 152.359375 43.277344 152.441406 42.792969 152.441406 42.28125 C 152.441406 41.765625 152.359375 41.28125 152.1875 40.820312 C 152.019531 40.355469 151.773438 39.941406 151.453125 39.570312 Z M 151.453125 39.570312 "/>
<path style=" stroke:none;fill-rule:nonzero;fill:rgb(100%,100%,100%);fill-opacity:1;" d="M 162.648438 41.707031 L 158.660156 41.707031 L 158.660156 38.492188 L 157.425781 38.492188 L 157.425781 46.066406 L 158.660156 46.066406 L 158.660156 42.839844 L 162.648438 42.839844 L 162.648438 46.066406 L 163.878906 46.066406 L 163.878906 38.492188 L 162.648438 38.492188 Z M 162.648438 41.707031 "/>
<path style=" stroke:none;fill-rule:nonzero;fill:rgb(100%,100%,100%);fill-opacity:1;" d="M 171.765625 44.25 C 171.292969 44.78125 170.621094 45.050781 169.75 45.050781 C 168.886719 45.050781 168.214844 44.78125 167.738281 44.25 C 167.265625 43.714844 167.027344 43.058594 167.027344 42.28125 C 167.027344 41.5 167.265625 40.84375 167.738281 40.308594 C 168.214844 39.777344 168.886719 39.511719 169.75 39.511719 C 170.621094 39.511719 171.292969 39.777344 171.765625 40.308594 C 172.238281 40.84375 172.476562 41.5 172.476562 42.28125 C 172.476562 43.058594 172.238281 43.714844 171.765625 44.25 Z M 172.738281 39.570312 C 172.417969 39.199219 172 38.902344 171.484375 38.683594 C 170.96875 38.460938 170.390625 38.351562 169.75 38.351562 C 169.109375 38.351562 168.527344 38.460938 168.007812 38.683594 C 167.492188 38.902344 167.074219 39.199219 166.753906 39.570312 C 166.4375 39.941406 166.195312 40.355469 166.027344 40.820312 C 165.855469 41.28125 165.773438 41.765625 165.773438 42.28125 C 165.773438 42.792969 165.855469 43.277344 166.027344 43.738281 C 166.195312 44.199219 166.4375 44.617188 166.753906 44.988281 C 167.074219 45.359375 167.492188 45.65625 168.007812 45.875 C 168.527344 46.09375 169.109375 46.207031 169.75 46.207031 C 170.390625 46.207031 170.96875 46.09375 171.484375 45.875 C 172 45.65625 172.417969 45.359375 172.738281 44.988281 C 173.058594 44.617188 173.304688 44.199219 173.476562 43.738281 C 173.644531 43.277344 173.730469 42.792969 173.730469 42.28125 C 173.730469 41.765625 173.644531 41.28125 173.476562 40.820312 C 173.304688 40.355469 173.058594 39.941406 172.738281 39.570312 Z M 172.738281 39.570312 "/>
<path style=" stroke:none;fill-rule:nonzero;fill:rgb(100%,100%,100%);fill-opacity:1;" d="M 179.789062 42.046875 C 179.445312 42.246094 178.980469 42.34375 178.386719 42.34375 L 176.851562 42.34375 L 176.851562 39.617188 L 178.386719 39.617188 C 178.980469 39.617188 179.445312 39.71875 179.789062 39.914062 C 180.128906 40.113281 180.300781 40.46875 180.300781 40.980469 C 180.300781 41.492188 180.128906 41.847656 179.789062 42.046875 Z M 178.324219 38.492188 L 175.621094 38.492188 L 175.621094 46.066406 L 176.851562 46.066406 L 176.851562 43.46875 L 178.324219 43.46875 C 180.476562 43.46875 181.554688 42.640625 181.554688 40.980469 C 181.554688 39.324219 180.476562 38.492188 178.324219 38.492188 Z M 178.324219 38.492188 "/>
<path style=" stroke:none;fill-rule:nonzero;fill:rgb(100%,100%,100%);fill-opacity:1;" d="M 187.328125 42.832031 L 184.453125 38.492188 L 183.339844 38.492188 L 183.339844 46.066406 L 184.574219 46.066406 L 184.574219 40.753906 L 186.960938 44.355469 L 187.695312 44.355469 L 190.085938 40.765625 L 190.085938 46.066406 L 191.316406 46.066406 L 191.316406 38.492188 L 190.203125 38.492188 L 187.328125 42.832031 "/>
<path style=" stroke:none;fill-rule:nonzero;fill:rgb(100%,100%,100%);fill-opacity:1;" d="M 195.242188 43.351562 L 196.570312 40.117188 C 196.628906 39.957031 196.675781 39.816406 196.710938 39.695312 C 196.75 39.816406 196.796875 39.957031 196.851562 40.117188 L 198.183594 43.351562 Z M 196.042969 38.492188 L 192.839844 46.066406 L 194.148438 46.066406 L 194.820312 44.433594 L 198.613281 44.433594 L 199.285156 46.066406 L 200.582031 46.066406 L 197.394531 38.492188 Z M 196.042969 38.492188 "/>
<path style=" stroke:none;fill-rule:nonzero;fill:rgb(100%,100%,100%);fill-opacity:1;" d="M 206.097656 42.832031 L 203.21875 38.492188 L 202.105469 38.492188 L 202.105469 46.066406 L 203.339844 46.066406 L 203.339844 40.753906 L 205.730469 44.355469 L 206.464844 44.355469 L 208.851562 40.765625 L 208.851562 46.066406 L 210.085938 46.066406 L 210.085938 38.492188 L 208.972656 38.492188 L 206.097656 42.832031 "/>
<path style=" stroke:none;fill-rule:nonzero;fill:rgb(100%,100%,100%);fill-opacity:1;" d="M 216.777344 44.03125 C 216.785156 43.859375 216.789062 43.582031 216.789062 43.199219 L 216.789062 38.492188 L 215.554688 38.492188 L 215.554688 46.066406 L 216.710938 46.066406 L 220.789062 40.527344 C 220.78125 40.699219 220.777344 40.972656 220.777344 41.347656 L 220.777344 46.066406 L 222.011719 46.066406 L 222.011719 38.492188 L 220.851562 38.492188 Z M 216.777344 44.03125 "/>
<path style=" stroke:none;fill-rule:nonzero;fill:rgb(100%,100%,100%);fill-opacity:1;" d="M 226.746094 44.789062 C 226.304688 44.601562 225.933594 44.292969 225.632812 43.871094 C 225.328125 43.445312 225.175781 42.9375 225.175781 42.34375 C 225.183594 41.40625 225.480469 40.695312 226.0625 40.214844 C 226.648438 39.730469 227.339844 39.488281 228.140625 39.488281 C 228.894531 39.488281 229.542969 39.675781 230.085938 40.050781 L 230.085938 38.851562 C 229.421875 38.519531 228.703125 38.351562 227.933594 38.351562 C 227.421875 38.351562 226.933594 38.4375 226.464844 38.601562 C 225.996094 38.765625 225.570312 39.011719 225.1875 39.332031 C 224.804688 39.652344 224.5 40.074219 224.269531 40.589844 C 224.039062 41.109375 223.921875 41.695312 223.921875 42.34375 C 223.921875 42.964844 224.039062 43.527344 224.269531 44.03125 C 224.5 44.535156 224.808594 44.945312 225.199219 45.253906 C 225.589844 45.5625 226.015625 45.800781 226.484375 45.960938 C 226.953125 46.125 227.441406 46.207031 227.945312 46.207031 C 228.730469 46.207031 229.460938 46.039062 230.140625 45.707031 L 230.140625 44.484375 C 229.628906 44.875 228.96875 45.070312 228.160156 45.070312 C 227.65625 45.070312 227.183594 44.976562 226.746094 44.789062 Z M 226.746094 44.789062 "/>
<path style=" stroke:none;fill-rule:nonzero;fill:rgb(100%,100%,100%);fill-opacity:1;" d="M 233.382812 39.230469 C 233.347656 39.75 233.308594 40.21875 233.269531 40.640625 C 233.230469 41.0625 233.183594 41.503906 233.128906 41.960938 C 233.074219 42.417969 233.007812 42.816406 232.929688 43.160156 C 232.847656 43.503906 232.757812 43.816406 232.652344 44.097656 C 232.546875 44.378906 232.417969 44.59375 232.257812 44.746094 C 232.101562 44.898438 231.921875 44.976562 231.730469 44.984375 C 231.527344 44.984375 231.351562 44.957031 231.210938 44.90625 L 231.210938 46.042969 C 231.476562 46.128906 231.726562 46.175781 231.957031 46.175781 C 232.207031 46.175781 232.4375 46.128906 232.640625 46.039062 C 232.847656 45.949219 233.03125 45.804688 233.1875 45.605469 C 233.347656 45.40625 233.488281 45.203125 233.609375 44.992188 C 233.730469 44.785156 233.839844 44.5 233.933594 44.140625 C 234.027344 43.777344 234.105469 43.460938 234.167969 43.183594 C 234.226562 42.90625 234.285156 42.527344 234.34375 42.050781 C 234.402344 41.578125 234.449219 41.1875 234.480469 40.882812 C 234.511719 40.582031 234.550781 40.164062 234.59375 39.628906 L 237.101562 39.628906 L 237.101562 46.066406 L 238.335938 46.066406 L 238.335938 38.492188 L 233.4375 38.492188 C 233.421875 38.660156 233.40625 38.90625 233.382812 39.230469 "/>
<path style=" stroke:none;fill-rule:nonzero;fill:rgb(100%,100%,100%);fill-opacity:1;" d="M 242.257812 43.351562 L 243.589844 40.117188 C 243.644531 39.957031 243.691406 39.816406 243.730469 39.695312 C 243.765625 39.816406 243.8125 39.957031 243.871094 40.117188 L 245.199219 43.351562 Z M 243.058594 38.492188 L 239.859375 46.066406 L 241.167969 46.066406 L 241.835938 44.433594 L 245.632812 44.433594 L 246.300781 46.066406 L 247.597656 46.066406 L 244.410156 38.492188 L 243.058594 38.492188 "/>
<path style=" stroke:none;fill-rule:nonzero;fill:rgb(100%,100%,100%);fill-opacity:1;" d="M 253.113281 42.832031 L 250.238281 38.492188 L 249.125 38.492188 L 249.125 46.066406 L 250.355469 46.066406 L 250.355469 40.753906 L 252.746094 44.355469 L 253.480469 44.355469 L 255.871094 40.765625 L 255.871094 46.066406 L 257.101562 46.066406 L 257.101562 38.492188 L 255.988281 38.492188 L 253.113281 42.832031 "/>
<path style=" stroke:none;fill-rule:nonzero;fill:rgb(100%,100%,100%);fill-opacity:1;" d="M 261.027344 43.351562 L 262.355469 40.117188 C 262.414062 39.957031 262.460938 39.816406 262.496094 39.695312 C 262.53125 39.816406 262.578125 39.957031 262.636719 40.117188 L 263.964844 43.351562 Z M 261.824219 38.492188 L 258.625 46.066406 L 259.933594 46.066406 L 260.605469 44.433594 L 264.398438 44.433594 L 265.070312 46.066406 L 266.367188 46.066406 L 263.179688 38.492188 L 261.824219 38.492188 "/>
</g>
</svg>
