<svg version="1.1" xmlns="http://www.w3.org/2000/svg" xmlns:xlink="http://www.w3.org/1999/xlink" width="800px" height="800px" viewBox="0,0,256,256"><g fill="#ffffff" fill-rule="nonzero" stroke="none" stroke-width="1" stroke-linecap="butt" stroke-linejoin="miter" stroke-miterlimit="10" stroke-dasharray="" stroke-dashoffset="0" font-family="none" font-weight="none" font-size="none" text-anchor="none" style="mix-blend-mode: normal"><g transform="translate(38.376,0.124) scale(8,8)"><path d="M0,10.375c0,0.938 0.344,1.969 0.781,3.063c0.437,1.094 1,2.125 1.438,2.906c1.188,2.063 2.719,4.094 4.469,5.781c1.75,1.687 3.813,3.094 6.125,3.938c1.344,0.531 2.688,1.125 4.188,1.125c0.75,0 1.813,-0.281 2.781,-0.688c0.938,-0.406 1.781,-1.031 2.094,-1.781c0.125,-0.281 0.281,-0.656 0.375,-1.094c0.094,-0.406 0.156,-0.813 0.156,-1.094c0,-0.156 0,-0.313 -0.031,-0.344c-0.094,-0.188 -0.313,-0.344 -0.563,-0.5c-0.563,-0.281 -0.656,-0.375 -1.5,-0.875c-0.875,-0.5 -1.781,-1.063 -2.563,-1.469c-0.375,-0.219 -0.625,-0.313 -0.719,-0.313c-0.5,0 -1.125,0.688 -1.656,1.438c-0.563,0.75 -1.188,1.438 -1.625,1.438c-0.219,0 -0.438,-0.094 -0.688,-0.25c-0.25,-0.156 -0.5,-0.281 -0.656,-0.375c-2.75,-1.563 -4.594,-3.406 -6.156,-6.125c-0.188,-0.313 -0.625,-0.969 -0.625,-1.313c0,-0.406 0.563,-0.875 1.125,-1.375c0.531,-0.469 1.094,-1.031 1.094,-1.719c0,-0.094 -0.063,-0.375 -0.188,-0.781c-0.281,-0.813 -0.656,-1.75 -0.969,-2.656c-0.156,-0.438 -0.281,-0.75 -0.313,-0.906c-0.063,-0.094 -0.094,-0.219 -0.125,-0.375c-0.031,-0.156 -0.094,-0.281 -0.125,-0.406c-0.094,-0.281 -0.25,-0.5 -0.406,-0.625c-0.156,-0.063 -0.531,-0.156 -0.906,-0.188c-0.375,0 -0.813,-0.031 -1,-0.031c-0.094,0 -0.219,0 -0.344,0.031h-0.406c-1,0.438 -1.719,1.313 -2.25,2.344c-0.5,1.031 -0.813,2.188 -0.813,3.219z"></path></g></g></svg>