<svg version="1.1" xmlns="http://www.w3.org/2000/svg" xmlns:xlink="http://www.w3.org/1999/xlink" width="800px" height="800px" viewBox="0,0,256,256"><g fill="#ffffff" fill-rule="nonzero" stroke="none" stroke-width="1" stroke-linecap="butt" stroke-linejoin="miter" stroke-miterlimit="10" stroke-dasharray="" stroke-dashoffset="0" font-family="none" font-weight="none" font-size="none" text-anchor="none" style="mix-blend-mode: normal"><g transform="translate(-0.00037,0) scale(0.5,0.5)"><g><path d="M184.488,220.595l51.016,39.35c1.966,15.861 15.336,28.191 31.73,28.191c17.754,0 32.14,-14.394 32.14,-32.14c0,-0.68 -0.156,-1.327 -0.205,-1.999l74.758,-88.44c5.21,-5.85 5.309,-14.28 0.213,-18.802c-5.088,-4.531 -13.436,-3.45 -18.647,2.408l-73.447,78.47c-4.457,-2.335 -9.438,-3.777 -14.813,-3.777c-5.742,0 -11.06,1.63 -15.73,4.277l-48.026,-33.443c-6.194,-4.563 -15.484,-2.45 -20.736,4.712c-5.233,7.142 -4.463,16.638 1.747,21.193z"></path><path d="M440.314,82.925c-44.2,-44.257 -105.58,-71.703 -173.08,-71.686v59.331c51.303,0.017 97.469,20.712 131.124,54.31c33.59,33.647 54.285,79.821 54.302,131.116c-0.017,51.294 -20.712,97.468 -54.302,131.116c-33.655,33.606 -79.821,54.301 -131.124,54.309c-51.294,-0.008 -97.468,-20.703 -131.116,-54.309c-33.598,-33.648 -54.293,-79.822 -54.309,-131.116c0.008,-16.82 2.302,-33.017 6.464,-48.444l24.046,14.977c3.187,1.975 7.062,2.393 10.241,1.09c3.203,-1.319 5.3,-4.162 5.546,-7.57l10.356,-135.614c0.278,-3.884 -1.852,-7.8 -5.472,-10.077c-3.654,-2.244 -8.119,-2.45 -11.47,-0.459l-117.148,69.072c-2.957,1.729 -4.58,4.858 -4.35,8.299c0.229,3.458 2.302,6.743 5.497,8.725l30.698,19.122c-8.872,25.357 -13.747,52.59 -13.747,80.879c-0.016,67.491 27.446,128.871 71.687,173.079c44.207,44.241 105.579,71.703 173.078,71.686c67.492,0.017 128.88,-27.445 173.08,-71.686c44.24,-44.208 71.703,-105.588 71.686,-173.079c0.016,-67.499 -27.447,-128.879 -71.687,-173.071z"></path></g></g></g></svg>