<?xml version="1.0"?>
<svg xmlns="http://www.w3.org/2000/svg" xmlns:xlink="http://www.w3.org/1999/xlink" xmlns:svgjs="http://svgjs.com/svgjs" version="1.1" width="512" height="512" x="0" y="0" viewBox="0 0 511.45 511.45" style="enable-background:new 0 0 512 512" xml:space="preserve" class=""><g><g xmlns="http://www.w3.org/2000/svg"><g><path d="m501.503 255.833c0 135.862-110.138 246-246 246-325.963-12.06-325.875-479.989.003-492 135.859 0 245.997 110.138 245.997 246z" fill="#446932" data-original="#446932" style="" class=""/></g><g><path d="m455.326 255.833c0 110.359-89.464 199.823-199.823 199.823-264.776-9.796-264.705-389.89.002-399.646 110.357 0 199.821 89.464 199.821 199.823z" fill="#446932" data-original="#ff9db0" style="" class=""/></g><g><path d="m487.271 146.979c-2.351-4.997-8.307-7.143-13.306-4.792-4.997 2.352-7.143 8.309-4.792 13.306 42.291 87.777 23.113 199.065-46.794 267.218-87.845 91.555-245.911 91.551-333.754 0-91.555-87.845-91.551-245.911 0-333.754 78.375-81.115 213.881-92.038 304.368-24.96 4.488 3.22 10.735 2.194 13.956-2.29 3.221-4.486 2.195-10.734-2.29-13.956-98.175-72.776-245.145-60.928-330.176 27.063-99.313 95.292-99.309 266.75 0 362.039 95.292 99.313 266.75 99.309 362.039 0 75.833-73.934 96.638-194.651 50.749-289.874z" fill="#c0a068" data-original="#000000" style="" class=""/><path d="m378.609 119.363c-13.254.492-13.244 19.512 0 20h30.214v31.006c.492 13.254 19.512 13.244 20 0v-31.006h29.269c13.254-.492 13.244-19.512 0-20h-29.269v-30.927c-.492-13.254-19.512-13.244-20 0v30.928h-30.214z" fill="#c0a068" data-original="#000000" style="" class=""/><path d="m338.46 351.275c4.694 0 8.5-3.806 8.5-8.5v-172.212c0-4.694-3.806-8.5-8.5-8.5h-36.809c-11.238.348-11.23 16.655 0 17h28.309v163.713c0 4.694 3.806 8.499 8.5 8.499z" fill="#c0a068" data-original="#000000" style="" class=""/><path d="m221.466 251.281c-27.411 39.165-43.779 60.598-52.573 72.111-10.155 13.297-12.269 16.064-10.606 21.465.896 2.911 3.141 5.158 6.157 6.163 8.402 1.975 62.706.895 90.552.706 4.694-.059 8.452-3.912 8.393-8.605-.056-4.696-3.924-8.456-8.605-8.393-27.148.341-56.859.506-73.401.322.336-.44.677-.888 1.022-1.34 8.869-11.612 25.377-33.228 52.99-72.682 10.192-14.563 16.795-28.136 19.625-40.34.064-.278.115-.56.151-.842l.852-6.662c-.085-63.977-90.231-73.613-104.078-11.258-1.824 11.096 14.182 14.231 16.682 3.277 9.21-41.512 68.87-36.099 70.461 6.39l-.723 5.656c-2.395 9.984-8.079 21.429-16.899 34.032z" fill="#c0a068" data-original="#000000" style="" class=""/><path d="m379.069 98.468c3.193-4.506 2.129-10.748-2.377-13.941-136.329-98.453-332.446 3.002-331.011 171.309-1.389 95.599 69.883 184.72 163.175 204.608 5.246 1.233 10.766-2.113 11.967-7.537 1.223-5.386-2.151-10.743-7.537-11.967-41.267-9.37-78.732-32.769-105.498-65.882-134.329-174.185 75.233-397.219 257.34-274.213 4.507 3.193 10.748 2.127 13.941-2.377z" fill="#446932" data-original="#000000" style="" class=""/><path d="m299.139 460.864c.721 0 1.452-.078 2.185-.241 45.824-10.211 87.443-36.022 117.191-72.679 44.559-54.227 58.705-131.282 36.318-197.807-1.729-5.246-7.379-8.095-12.627-6.369-5.245 1.729-8.097 7.382-6.369 12.627 20.245 60.171 7.454 129.899-32.853 178.945-26.919 33.172-64.568 56.526-106.011 65.761-5.391 1.201-8.787 6.545-7.586 11.936 1.039 4.658 5.17 7.827 9.752 7.827z" fill="#c0a068" data-original="#000000" style="" class=""/><path d="m246.272 461.833c2.098 5.031 8.004 7.494 13.05 5.41 11.993-5.637 4.824-22.949-7.64-18.471-4.986 2.059-7.573 8.058-5.41 13.061z" fill="#c0a068" data-original="#000000" style="" class=""/></g></g></g></svg>
