<svg version="1.1" xmlns="http://www.w3.org/2000/svg" xmlns:xlink="http://www.w3.org/1999/xlink" width="800px" height="800px" viewBox="0,0,256,256"><g fill="#ffffff" fill-rule="nonzero" stroke="none" stroke-width="1" stroke-linecap="butt" stroke-linejoin="miter" stroke-miterlimit="10" stroke-dasharray="" stroke-dashoffset="0" font-family="none" font-weight="none" font-size="none" text-anchor="none" style="mix-blend-mode: normal"><g transform="translate(-0.00074,0) scale(0.30236,0.30236)"><g id="Layer_x0020_1"><path d="M539.75,794.68c27.15,0 27.15,41.29 0,41.29h-497.47c-11.4,0 -20.64,-9.25 -20.64,-20.65v-621.69c0,-5.7 2.31,-10.87 6.04,-14.6l162.3,-162.29c4.03,-4.03 9.31,-6.05 14.59,-6.05h466.89c11.4,0 20.65,9.25 20.65,20.65v361.36c0,27.16 -41.29,27.16 -41.29,0v-340.72h-437.7l-150.19,150.2v592.5zM188.54,612.7c-27.16,0 -27.16,-41.29 0,-41.29h306.67c27.16,0 27.16,41.29 0,41.29zM188.54,338.02c-27.16,0 -27.16,-41.29 0,-41.29h306.67c27.16,0 27.16,41.29 0,41.29zM188.54,429.58c-27.16,0 -27.16,-41.29 0,-41.29h306.67c27.16,0 27.16,41.29 0,41.29zM188.54,521.14c-27.16,0 -27.16,-41.29 0,-41.29h306.67c27.16,0 27.16,41.29 0,41.29zM188.54,246.46c-27.16,0 -27.16,-41.29 0,-41.29h306.67c27.16,0 27.16,41.29 0,41.29zM685.11,484.71c49.84,0 90.24,40.4 90.24,90.24c0,18.1 -5.33,34.95 -14.5,49.07c37.57,24.93 61.47,66.08 64.13,111.2c1.59,27.06 -39.55,29.47 -41.13,2.42c-2.11,-35.69 -22.61,-67.48 -54.13,-84.24c-13.16,7.5 -28.38,11.78 -44.61,11.78c-17.56,0 -33.95,-5.01 -47.81,-13.69c-33.44,16.12 -55.6,49.04 -57.79,86.15c-1.59,27.05 -42.72,24.64 -41.13,-2.42c2.79,-47.18 28.75,-89.88 69.08,-114.28c-7.99,-13.47 -12.58,-29.19 -12.58,-45.99c0,-49.83 40.4,-90.24 90.23,-90.24zM685.11,526c-27.03,0 -48.94,21.92 -48.94,48.95c0,27.03 21.91,48.94 48.94,48.94c27.03,0 48.95,-21.91 48.95,-48.94c0,-27.03 -21.91,-48.95 -48.95,-48.95z"></path></g></g></g></svg>